# xmcd CD database file
#
# Track frame offsets:
#	150
#	99780
#	112800
#	127860
#
# Disc length: 2746 seconds
#
# Revision: 0
# Processed by: cddbd v1.5PL3 Copyright (c) Steve Scherf et al.
# Submitted via: CDex 1.51
#
DISCID=1f0ab804
DTITLE=Derek Bailey and Tony Oxley - Soho Suites - disc 1
DYEAR=1997
DGENRE=Jazz
TTITLE0=Carlisle
TTITLE1=Wardour
TTITLE2=Berwick
TTITLE3=Beak
EXTD=YEAR: 1997
EXTT0=
EXTT1=
EXTT2=
EXTT3=
PLAYORDER=
